# xmcd
# 
# Track frame offsets:
#     150
#     21758
#     35521
#     54739
#     77437
#     99721
#     122187
#     141369
#     166852
#     183250
#     201603
#     224843
#     243709
#     262578
#     287209
#     311516
# 
# Disc length: 4437
# 
# Revision: 3
# Processed by: cddbd v1.5.2PL0 Copyright (c) Steve Scherf et al.
# Submitted via: fre:ac v1.0.17
# 
DISCID=f1115310
DTITLE=女子十二楽坊 - The Best Of Covers
DYEAR=2005
DGENRE=Instrumental Pop
TTITLE0=世界に一つだけの花
TTITLE1=ドラえもんのうた
TTITLE2=涙そうそう
TTITLE3=ラブストーリーは突然に
TTITLE4=川の流れのように
TTITLE5=クロックス
TTITLE6=いい日旅立ち
TTITLE7=新古典主義（組曲） (1)交響曲第40番第一楽章 (2)交響曲第5番「運命」第一楽章 (3)歌劇「セビリアの理髪師」序曲
TTITLE8=オンリー・タイム
TTITLE9=自由
TTITLE10=時の流れに身をまかせ
TTITLE11=異邦人
TTITLE12=花
TTITLE13=真夏の果実
TTITLE14=地上の星
TTITLE15=チャルダッシュ
EXTD=YEAR: 2005
EXTT0=
EXTT1=
EXTT2=
EXTT3=
EXTT4=
EXTT5=
EXTT6=
EXTT7=
EXTT8=
EXTT9=
EXTT10=
EXTT11=
EXTT12=
EXTT13=
EXTT14=
EXTT15=
PLAYORDER=
